<svg width="54" height="54" viewBox="0 0 54 54" fill="none" xmlns="http://www.w3.org/2000/svg">
<circle cx="27" cy="27" r="26.75" stroke="#009061" stroke-width="0.5"/>
<path d="M33.5568 14.6564H27.7896V14.8958H33.5568V14.6564Z" fill="#31B782" stroke="#009061" stroke-width="0.25"/>
<path d="M25.2906 14.6564H19.4834V14.8958H25.2906V14.6564Z" fill="#31B782" stroke="#009061" stroke-width="0.25"/>
<path d="M38.9126 41.6808H14.1272C13.7161 41.6808 13.3809 41.3456 13.3809 40.9345V15.4027C13.3809 14.9916 13.7161 14.6564 14.1272 14.6564H17.0887V14.8958H14.1272C13.8478 14.8958 13.6203 15.1233 13.6203 15.4027V40.9345C13.6203 41.2139 13.8478 41.4414 14.1272 41.4414H38.9126C39.192 41.4414 39.4195 41.2139 39.4195 40.9345V15.4027C39.4195 15.1233 39.192 14.8958 38.9126 14.8958H35.9751V14.6564H38.9126C39.3237 14.6564 39.659 14.9916 39.659 15.4027V40.9345C39.655 41.3456 39.3237 41.6808 38.9126 41.6808Z" fill="#31B782" stroke="#009061" stroke-width="0.25"/>
<path d="M39.5395 22.4232H13.5049V22.6627H39.5395V22.4232Z" fill="#31B782" stroke="#009061" stroke-width="0.25"/>
<path d="M39.4795 21.154H13.4448V21.3935H39.4795V21.154Z" fill="#31B782" stroke="#009061" stroke-width="0.25"/>
<path d="M26.52 13.1197C27.2025 13.1197 27.7573 13.6745 27.7573 14.357V16.7956C27.7573 17.4781 27.2025 18.0329 26.52 18.0329C25.8375 18.0329 25.2827 17.4781 25.2827 16.7956V14.357C25.2827 13.6745 25.8375 13.1197 26.52 13.1197Z" stroke="#009061" stroke-width="0.25"/>
<path d="M26.5201 18.1527C25.7697 18.1527 25.1631 17.542 25.1631 16.7956V14.357C25.1631 13.6067 25.7737 13 26.5201 13C27.2665 13 27.8771 13.6107 27.8771 14.357V16.7956C27.8771 17.546 27.2704 18.1527 26.5201 18.1527ZM26.5201 13.2395C25.9015 13.2395 25.4026 13.7424 25.4026 14.357V16.7956C25.4026 17.4143 25.9055 17.9132 26.5201 17.9132C27.1347 17.9132 27.6376 17.4103 27.6376 16.7956V14.357C27.6376 13.7384 27.1387 13.2395 26.5201 13.2395Z" fill="#31B782" stroke="#009061" stroke-width="0.25"/>
<path d="M34.7539 13.1197C35.4364 13.1197 35.9912 13.6745 35.9912 14.357V16.7956C35.9912 17.4781 35.4364 18.0329 34.7539 18.0329C34.0714 18.0329 33.5166 17.4781 33.5166 16.7956V14.357C33.5126 13.6745 34.0674 13.1197 34.7539 13.1197Z" stroke="#009061" stroke-width="0.25"/>
<path d="M34.7535 18.1527C34.0031 18.1527 33.3965 17.542 33.3965 16.7956V14.357C33.3965 13.6067 34.0071 13 34.7535 13C35.4999 13 36.1105 13.6107 36.1105 14.357V16.7956C36.1105 17.546 35.4999 18.1527 34.7535 18.1527ZM34.7535 13.2395C34.1349 13.2395 33.636 13.7424 33.636 14.357V16.7956C33.636 17.4143 34.1388 17.9132 34.7535 17.9132C35.3681 17.9132 35.871 17.4103 35.871 16.7956V14.357C35.871 13.7384 35.3681 13.2395 34.7535 13.2395Z" fill="#31B782" stroke="#009061" stroke-width="0.25"/>
<path d="M18.2866 13.1197C18.9691 13.1197 19.5239 13.6745 19.5239 14.357V16.7956C19.5239 17.4781 18.9691 18.0329 18.2866 18.0329C17.6041 18.0329 17.0493 17.4781 17.0493 16.7956V14.357C17.0493 13.6745 17.6041 13.1197 18.2866 13.1197Z" stroke="#009061" stroke-width="0.25"/>
<path d="M18.2862 18.1527C17.5359 18.1527 16.9292 17.542 16.9292 16.7956V14.357C16.9292 13.6067 17.5399 13 18.2862 13C19.0326 13 19.6432 13.6107 19.6432 14.357V16.7956C19.6472 17.546 19.0366 18.1527 18.2862 18.1527ZM18.2862 13.2395C17.6676 13.2395 17.1687 13.7424 17.1687 14.357V16.7956C17.1687 17.4143 17.6716 17.9132 18.2862 17.9132C18.9009 17.9132 19.4037 17.4103 19.4037 16.7956V14.357C19.4077 13.7384 18.9048 13.2395 18.2862 13.2395Z" fill="#31B782" stroke="#009061" stroke-width="0.25"/>
<path d="M16.5577 41.6609C16.2744 41.4813 15.995 41.2857 15.7355 41.0742L15.8872 40.8866C16.1426 41.0901 16.4101 41.2817 16.6894 41.4573L16.5577 41.6609ZM14.9852 40.3996C14.7497 40.1602 14.5262 39.9047 14.3187 39.6413L14.5063 39.4936C14.7058 39.7491 14.9253 39.9965 15.1568 40.232L14.9852 40.3996ZM13.7399 38.8111C13.5963 38.5757 13.4645 38.3322 13.3408 38.0847L13.5563 37.981C13.6721 38.2204 13.8038 38.4599 13.9435 38.6874L13.7399 38.8111Z" fill="#31B782" stroke="#009061" stroke-width="0.25"/>
<path d="M26.4084 41.2298L26.2647 41.0382C26.5241 40.8427 26.7756 40.6272 27.0111 40.4036L27.1747 40.5753C26.9352 40.8068 26.6758 41.0263 26.4084 41.2298ZM27.8652 39.8369L27.6816 39.6852C27.8891 39.4338 28.0847 39.1664 28.2643 38.895L28.4639 39.0267C28.2843 39.3061 28.0807 39.5775 27.8652 39.8369ZM28.9668 38.1486L28.7512 38.0408C28.8949 37.7495 29.0266 37.4422 29.1344 37.1388L29.3579 37.2187C29.2501 37.534 29.1184 37.8453 28.9668 38.1486ZM29.6453 36.2488L29.4138 36.1969C29.4856 35.8776 29.5415 35.5543 29.5774 35.227L29.8169 35.255C29.781 35.5863 29.7211 35.9215 29.6453 36.2488ZM29.6293 34.2452C29.6293 33.9179 29.6093 33.5867 29.5694 33.2634L29.8089 33.2354C29.8488 33.5667 29.8688 33.906 29.8728 34.2412L29.6293 34.2452ZM29.3978 32.2975C29.322 31.9822 29.2262 31.6629 29.1144 31.3596L29.3379 31.2757C29.4537 31.5911 29.5535 31.9143 29.6293 32.2416L29.3978 32.2975ZM13.6086 30.4855L13.3931 30.3777C13.5447 30.0784 13.7124 29.783 13.9 29.5037L14.0995 29.6354C13.9239 29.9068 13.7563 30.1941 13.6086 30.4855ZM28.7193 30.4576C28.5716 30.1662 28.404 29.8828 28.2244 29.6114L28.424 29.4797C28.6115 29.7591 28.7792 30.0544 28.9308 30.3498L28.7193 30.4576ZM14.6902 28.8491L14.5066 28.6934C14.7221 28.438 14.9536 28.1905 15.2011 27.9591L15.3647 28.1347C15.1253 28.3582 14.8978 28.5976 14.6902 28.8491ZM27.6337 28.8251C27.4222 28.5777 27.1947 28.3382 26.9592 28.1147L27.1228 27.9391C27.3663 28.1706 27.6018 28.4141 27.8173 28.6695L27.6337 28.8251ZM16.1151 27.5001L15.9714 27.3085C16.2388 27.1089 16.5222 26.9213 16.8135 26.7537L16.9333 26.9613C16.6539 27.1249 16.3785 27.3045 16.1151 27.5001ZM26.2048 27.4841C25.9414 27.2885 25.666 27.1089 25.3827 26.9453L25.5024 26.7377C25.7938 26.9054 26.0771 27.093 26.3485 27.2925L26.2048 27.4841ZM17.8113 26.5182L17.7155 26.2987C18.0229 26.167 18.3422 26.0473 18.6655 25.9515L18.7333 26.179C18.422 26.2748 18.1107 26.3865 17.8113 26.5182ZM24.5046 26.5063C24.2052 26.3785 23.8939 26.2668 23.5826 26.171L23.6505 25.9395C23.9738 26.0353 24.2931 26.151 24.6004 26.2827L24.5046 26.5063ZM19.6872 25.9555L19.6473 25.72C19.9786 25.6601 20.3138 25.6202 20.6491 25.6042L20.665 25.8437C20.3378 25.8597 20.0105 25.8956 19.6872 25.9555ZM22.6207 25.9475C22.3014 25.8916 21.9702 25.8557 21.6469 25.8357L21.6589 25.5963C21.9941 25.6162 22.3334 25.6521 22.6607 25.712L22.6207 25.9475Z" fill="#31B782" stroke="#009061" stroke-width="0.25"/>
<path d="M33.7159 37.969C31.0977 37.969 28.6391 36.9512 26.7872 35.0993C24.9352 33.2474 23.9175 30.7888 23.9175 28.1706C23.9175 26.1111 24.5481 24.1435 25.7415 22.4751L25.937 22.6148C24.7716 24.2432 24.157 26.163 24.157 28.1706C24.157 30.725 25.1508 33.1237 26.9588 34.9317C28.7628 36.7357 31.1655 37.7335 33.7199 37.7335C35.8153 37.7335 37.8029 37.071 39.4672 35.8138L39.6109 36.0053C37.8987 37.2865 35.8632 37.969 33.7159 37.969Z" fill="#31B782" stroke="#009061" stroke-width="0.25"/>
</svg>
