<svg width="54" height="54" viewBox="0 0 54 54" fill="none" xmlns="http://www.w3.org/2000/svg">
<circle cx="27" cy="27" r="26.75" stroke="#009061" stroke-width="0.5"/>
<path d="M41.0085 41.8937H11.9919C11.834 41.8937 11.7061 42.0216 11.7061 42.1795V43.4387C11.7061 43.5966 11.834 43.7245 11.9919 43.7245H41.0085C41.1664 43.7245 41.2944 43.5966 41.2944 43.4387V42.1795C41.2944 42.0216 41.1664 41.8937 41.0085 41.8937Z" stroke="#009061" stroke-width="0.25"/>
<path d="M41.0084 43.8607H11.9918C11.7591 43.8607 11.5698 43.6714 11.5698 43.4387V42.1795C11.5698 41.9469 11.7591 41.7576 11.9918 41.7576H41.0084C41.2411 41.7576 41.4304 41.9469 41.4304 42.1795V43.4387C41.4304 43.6714 41.2411 43.8607 41.0084 43.8607ZM11.9918 42.0298C11.9093 42.0298 11.8421 42.0969 11.8421 42.1795V43.4387C11.8421 43.5213 11.9092 43.5885 11.9918 43.5885H41.0084C41.091 43.5885 41.1582 43.5213 41.1582 43.4387V42.1795C41.1582 42.097 41.091 42.0298 41.0084 42.0298H11.9918Z" fill="#31B782" stroke="#009061" stroke-width="0.25"/>
<path d="M26.5004 40.5595C26.3594 40.5595 26.227 40.5047 26.1273 40.405L13.1734 27.4512C13.0197 27.2974 12.9759 27.0771 13.0591 26.8762C13.1423 26.6754 13.329 26.5506 13.5464 26.5506H21.3346C21.4754 26.5506 21.5899 26.4361 21.5899 26.2953V9.52751C21.5899 9.23667 21.8266 9 22.1175 9H30.1798C30.4706 9 30.7073 9.23667 30.7073 9.52751V26.2954C30.7073 26.4362 30.8218 26.5506 30.9626 26.5506H39.4542C39.6716 26.5506 39.8583 26.6754 39.9415 26.8763C40.0247 27.0772 39.9809 27.2974 39.8272 27.4512L26.8732 40.4051C26.7736 40.5047 26.6412 40.5596 26.5002 40.5596L26.5004 40.5595ZM13.5464 26.8228C13.4396 26.8228 13.3515 26.8817 13.3106 26.9804C13.2698 27.0792 13.2904 27.1831 13.366 27.2587L26.3199 40.2126C26.3681 40.2608 26.4322 40.2873 26.5004 40.2873C26.5686 40.2873 26.6327 40.2608 26.681 40.2126L39.6349 27.2587C39.7104 27.1831 39.7311 27.0792 39.6902 26.9805C39.6493 26.8818 39.5611 26.8228 39.4543 26.8228H30.9627C30.6719 26.8228 30.4352 26.5862 30.4352 26.2953V9.52751C30.4352 9.38672 30.3208 9.27224 30.18 9.27224H22.1176C21.9768 9.27224 21.8623 9.38672 21.8623 9.52751V26.2954C21.8623 26.5862 21.6256 26.8229 21.3348 26.8229L13.5464 26.8228Z" fill="#31B782"/>
<path d="M26.8732 40.4051L39.8272 27.4512C39.9809 27.2974 40.0247 27.0772 39.9415 26.8763C39.8583 26.6754 39.6716 26.5506 39.4542 26.5506H30.9626C30.8218 26.5506 30.7073 26.4362 30.7073 26.2954V9.52751C30.7073 9.23667 30.4706 9 30.1798 9H22.1175C21.8266 9 21.5899 9.23667 21.5899 9.52751V26.2953C21.5899 26.4361 21.4754 26.5506 21.3346 26.5506H13.5464C13.329 26.5506 13.1423 26.6754 13.0591 26.8762C12.9759 27.0771 13.0197 27.2974 13.1734 27.4512L26.1273 40.405C26.227 40.5047 26.3594 40.5595 26.5004 40.5595L26.5002 40.5596C26.6412 40.5596 26.7736 40.5047 26.8732 40.4051ZM26.8732 40.4051L26.777 40.3089M13.5464 26.8228C13.4396 26.8228 13.3515 26.8817 13.3106 26.9804C13.2698 27.0792 13.2904 27.1831 13.366 27.2587L26.3199 40.2126C26.3681 40.2608 26.4322 40.2873 26.5004 40.2873C26.5686 40.2873 26.6327 40.2608 26.681 40.2126L39.6349 27.2587C39.7104 27.1831 39.7311 27.0792 39.6902 26.9805C39.6493 26.8818 39.5611 26.8228 39.4543 26.8228H30.9627C30.6719 26.8228 30.4352 26.5862 30.4352 26.2953V9.52751C30.4352 9.38672 30.3208 9.27224 30.18 9.27224H22.1176C21.9768 9.27224 21.8623 9.38672 21.8623 9.52751V26.2954C21.8623 26.5862 21.6256 26.8229 21.3348 26.8229L13.5464 26.8228Z" stroke="#009061" stroke-width="0.25"/>
<path d="M34.8007 32.4026C34.4231 32.3524 34.0438 32.283 33.6737 32.1963L33.7358 31.9312C34.0973 32.0159 34.4677 32.0837 34.8366 32.1327L34.8007 32.4026V32.4026ZM32.572 31.8803C32.2118 31.7576 31.8534 31.6154 31.5066 31.4578L31.6192 31.2099C31.958 31.3639 32.3081 31.5027 32.6598 31.6226L32.572 31.8803ZM30.4877 30.9331C30.1586 30.7427 29.8347 30.5336 29.5249 30.3116L29.6835 30.0903C29.9861 30.3072 30.3026 30.5115 30.624 30.6974L30.4877 30.9331ZM28.6271 29.5996C28.3407 29.3489 28.0633 29.0812 27.8026 28.8041L28.0009 28.6176C28.2556 28.8884 28.5266 29.1498 28.8065 29.3948L28.6271 29.5996ZM27.0589 27.9325C26.8263 27.6315 26.6057 27.3154 26.4034 26.9931L26.634 26.8484C26.8316 27.1632 27.0471 27.472 27.2744 27.7661L27.0589 27.9326V27.9325ZM25.8424 25.9943C25.6724 25.6536 25.5174 25.3008 25.3817 24.9456L25.636 24.8485C25.7685 25.1953 25.9199 25.54 26.086 25.8727L25.8424 25.9943ZM25.026 23.8564C24.9258 23.4894 24.8426 23.113 24.7787 22.7376L25.0472 22.692C25.1095 23.0587 25.1907 23.4263 25.2886 23.7847L25.026 23.8564ZM24.6419 21.6002C24.622 21.3204 24.6119 21.0353 24.6118 20.7529C24.6118 20.6543 24.613 20.554 24.6155 20.4549L24.8877 20.4616C24.8853 20.5586 24.8841 20.6565 24.8841 20.7529C24.8841 21.0289 24.894 21.3074 24.9135 21.5808L24.6419 21.6002ZM24.9694 19.3453L24.6993 19.3122C24.7455 18.9337 24.811 18.5535 24.8939 18.182L25.1595 18.2414C25.0786 18.6042 25.0146 18.9756 24.9694 19.3453ZM25.4568 17.1617L25.1983 17.0767C25.3173 16.7148 25.4557 16.3548 25.6097 16.0065L25.8587 16.1166C25.7083 16.4567 25.5731 16.8084 25.4568 17.1617ZM26.3609 15.1159L26.1238 14.982C26.3108 14.6508 26.5165 14.3247 26.7354 14.0127L26.9582 14.169C26.7445 14.4738 26.5435 14.7924 26.3609 15.1159ZM27.6448 13.2847L27.4381 13.1076C27.6858 12.8187 27.9506 12.5385 28.2252 12.2748L28.4137 12.4712C28.1455 12.7288 27.8868 13.0025 27.6448 13.2847ZM29.2577 11.7358L29.089 11.5221C29.3877 11.2864 29.7015 11.0625 30.0217 10.8568L30.1688 11.0859C29.856 11.2868 29.5495 11.5055 29.2577 11.7358Z" fill="#31B782" stroke="#009061" stroke-width="0.25"/>
<path d="M23.1123 37.2607L22.993 37.0159C24.604 36.231 25.9661 35.016 26.932 33.5022C27.924 31.9474 28.4484 30.1462 28.4484 28.2931C28.4484 26.1826 27.7822 24.1763 26.522 22.4911C25.3032 20.8614 23.5676 19.6328 21.6348 19.0317L21.7156 18.7717C23.7027 19.3898 25.4871 20.6528 26.7399 22.328C28.0358 24.0607 28.7206 26.1233 28.7206 28.2931C28.7206 30.1981 28.1814 32.0501 27.1615 33.6486C26.1686 35.2047 24.7683 36.4537 23.1123 37.2606L23.1123 37.2607Z" fill="#31B782" stroke="#009061" stroke-width="0.25"/>
</svg>
