<svg width="54" height="54" viewBox="0 0 54 54" fill="none" xmlns="http://www.w3.org/2000/svg">
<circle cx="27" cy="27" r="26.75" stroke="#009061" stroke-width="0.5"/>
<path d="M31.0777 44.4529H21.9604C20.9747 44.4529 20.1728 43.651 20.1728 42.6654C20.1728 41.6798 20.9747 40.8778 21.9604 40.8778H23.7298C24.3357 40.8778 24.8285 40.385 24.8285 39.7792C24.8285 39.2448 24.4397 38.775 23.8831 38.6365C21.3958 38.0181 19.14 36.5054 17.5313 34.3772C16.7281 33.3147 16.1024 32.1286 15.6716 30.8517C15.2259 29.5306 15 28.1426 15 26.7264V23.8813C15 22.9491 15.7584 22.1907 16.6907 22.1907C17.6229 22.1907 18.3813 22.949 18.3813 23.8813L18.3811 26.7264C18.3811 31.4989 22.0318 35.3815 26.519 35.3815C31.0062 35.3815 34.6569 31.4989 34.6569 26.7264V23.8813C34.6569 22.9491 35.4153 22.1907 36.3476 22.1907C37.2798 22.1907 38.0382 22.949 38.0382 23.8813V26.7264C38.0382 28.1426 37.8122 29.5306 37.3665 30.8517C36.9358 32.1286 36.3101 33.3147 35.5069 34.3772C33.8982 36.5054 31.6424 38.0181 29.1552 38.6365C28.5985 38.775 28.2097 39.2448 28.2097 39.7792C28.2097 40.385 28.7026 40.8778 29.3084 40.8778H31.0778C32.0635 40.8778 32.8654 41.6797 32.8654 42.6654C32.8654 43.6511 32.0635 44.4529 31.0778 44.4529H31.0777ZM21.9604 41.1553C21.1277 41.1553 20.4503 41.8327 20.4503 42.6654C20.4503 43.498 21.1277 44.1753 21.9604 44.1753H31.0777C31.9104 44.1753 32.5878 43.498 32.5878 42.6654C32.5878 41.8328 31.9104 41.1553 31.0777 41.1553H29.3083C28.5494 41.1553 27.9321 40.5379 27.9321 39.7791C27.9321 39.1171 28.4075 38.5364 29.0881 38.3672C31.5139 37.764 33.7149 36.2875 35.2854 34.2098C36.0706 33.1712 36.6822 32.0115 37.1035 30.763C37.5395 29.4705 37.7606 28.1124 37.7606 26.7264V23.8813C37.7606 23.1021 37.1267 22.4682 36.3475 22.4682C35.5683 22.4682 34.9343 23.1021 34.9343 23.8813V26.7264C34.9343 31.6519 31.1591 35.659 26.5189 35.659C21.8786 35.659 18.1035 31.6519 18.1035 26.7264L18.1037 23.8813C18.1037 23.1021 17.4698 22.4682 16.6906 22.4682C15.9114 22.4682 15.2774 23.1021 15.2774 23.8813V26.7264C15.2774 28.1124 15.4985 29.4705 15.9345 30.763C16.3557 32.0115 16.9674 33.1712 17.7526 34.2098C19.3232 36.2875 21.5241 37.764 23.9499 38.3672C24.6306 38.5364 25.1059 39.1171 25.1059 39.7791C25.1059 40.5379 24.4886 41.1553 23.7298 41.1553H21.9603H21.9604Z" fill="#31B782" stroke="#009061" stroke-width="0.25"/>
<path d="M26.5191 33.4608C23.0198 33.4608 20.1729 30.4398 20.1729 26.7266V15.3463C20.1729 11.847 23.0198 9 26.5191 9C30.0185 9 32.8654 11.847 32.8654 15.3463V26.7266C32.8654 30.4398 30.0185 33.4608 26.5191 33.4608ZM26.5191 9.2775C23.1728 9.2775 20.4504 11.9999 20.4504 15.3463V26.7266C20.4504 30.2869 23.1728 33.1833 26.5191 33.1833C29.8655 33.1833 32.5879 30.2868 32.5879 26.7266V15.3463C32.5879 11.9999 29.8655 9.2775 26.5191 9.2775Z" fill="#31B782" stroke="#009061" stroke-width="0.25"/>
<path d="M31.0778 44.4529H21.9604C20.9747 44.4529 20.1729 43.651 20.1729 42.6653C20.1729 41.6797 20.9747 40.8778 21.9604 40.8778H31.0778C32.0635 40.8778 32.8653 41.6797 32.8653 42.6653C32.8653 43.651 32.0634 44.4529 31.0778 44.4529ZM21.9604 41.1553C21.1277 41.1553 20.4504 41.8326 20.4504 42.6653C20.4504 43.4979 21.1277 44.1753 21.9604 44.1753H31.0778C31.9105 44.1753 32.5878 43.498 32.5878 42.6653C32.5878 41.8326 31.9105 41.1553 31.0778 41.1553H21.9604Z" fill="#31B782"/>
<path d="M22.2673 30.8618C22.0278 30.8618 21.786 30.8509 21.5485 30.8292L21.5737 30.5529C21.8028 30.5737 22.0362 30.5843 22.2673 30.5843C26.4307 30.5843 29.8177 27.1972 29.8177 23.0339C29.8177 18.8706 26.4307 15.4834 22.2673 15.4834C21.6165 15.4834 20.9703 15.5663 20.3467 15.7299L20.2764 15.4614C20.9229 15.2919 21.5928 15.2059 22.2674 15.2059C26.5837 15.2059 30.0953 18.7176 30.0953 23.0339C30.0953 27.3502 26.5837 30.8618 22.2674 30.8618H22.2673Z" fill="#31B782" stroke="#009061" stroke-width="0.25"/>
<path d="M32.7207 25.5292C32.3289 25.5127 31.9365 25.4664 31.5543 25.3916L31.6075 25.1193C31.9761 25.1913 32.3545 25.2359 32.7324 25.2519L32.7206 25.5291L32.7207 25.5292ZM30.421 25.0793C30.0534 24.9472 29.6925 24.7855 29.3484 24.5989L29.4806 24.355C29.8125 24.5349 30.1605 24.6908 30.5148 24.8182L30.421 25.0793ZM28.3608 23.9624C28.0494 23.7267 27.7531 23.4652 27.4801 23.1851L27.6788 22.9914C27.9421 23.2615 28.228 23.5137 28.5283 23.741L28.3608 23.9623V23.9624ZM26.7256 22.2851C26.4975 21.9672 26.292 21.6298 26.1148 21.2822L26.3621 21.1562C26.5329 21.4913 26.7311 21.8166 26.9511 22.1233L26.7256 22.2851V22.2851ZM25.6621 20.1983C25.5395 19.8277 25.4442 19.4442 25.3789 19.0583L25.6525 19.012C25.7154 19.384 25.8074 19.7539 25.9255 20.1112L25.6621 20.1983ZM25.2707 17.8887C25.2699 17.8428 25.2695 17.7966 25.2695 17.7505C25.2695 17.4046 25.2924 17.0566 25.3377 16.7163L25.6127 16.7528C25.5691 17.0812 25.547 17.4168 25.547 17.7505C25.547 17.7951 25.5474 17.8396 25.5482 17.8841L25.2707 17.8887ZM25.8464 15.6445L25.58 15.5668C25.6893 15.1916 25.8286 14.8216 25.9937 14.4671L26.2452 14.5843C26.086 14.9261 25.9518 15.2828 25.8463 15.6445H25.8464ZM26.7999 13.5965L26.5688 13.4427C26.7851 13.1177 27.0282 12.806 27.2913 12.5165L27.4967 12.7031C27.2429 12.9823 27.0084 13.2829 26.7999 13.5965ZM28.3194 11.924L28.1442 11.7088C28.4476 11.4619 28.772 11.2362 29.1086 11.0379L29.2495 11.277C28.9249 11.4683 28.612 11.686 28.3194 11.924ZM30.2661 10.7774L30.163 10.5198C30.2567 10.4823 30.3525 10.4461 30.4478 10.4122L30.5407 10.6737C30.4489 10.7063 30.3565 10.7413 30.2661 10.7774Z" fill="#31B782" stroke="#009061" stroke-width="0.25"/>
</svg>
