<svg width="54" height="54" viewBox="0 0 54 54" fill="none" xmlns="http://www.w3.org/2000/svg">
<circle cx="27" cy="27" r="26.75" stroke="#009061" stroke-width="0.5"/>
<path d="M32.1627 28.5283L32.124 28.3136C34.3301 27.916 36.311 26.883 37.8524 25.3263C39.1371 24.0289 40.0785 22.3845 40.4351 20.8145C40.9696 18.4614 40.4533 16.3875 39.0875 15.4021C38.151 14.7264 36.9729 14.628 35.5857 15.1097L35.514 14.9035C36.9723 14.3971 38.2176 14.5053 39.2152 15.2251C40.6532 16.2627 41.2022 18.4229 40.6479 20.8629C40.2825 22.4715 39.3201 24.1543 38.0075 25.4799C36.4343 27.0687 34.4132 28.1228 32.1627 28.5284V28.5283Z" fill="#31B782" stroke="#009061" stroke-width="0.25"/>
<path d="M33.9857 25.9656L33.8999 25.765C36.6126 24.6045 38.0282 22.2137 38.4485 20.3633C38.7883 18.8675 38.5659 17.5374 37.8953 17.0536C37.4171 16.7086 36.6055 16.7975 35.61 17.3043L35.5109 17.1097C36.5986 16.5562 37.4672 16.4755 38.0231 16.8766C38.7637 17.4109 39.0203 18.8316 38.6614 20.4116C38.2292 22.3145 36.7739 24.7729 33.9857 25.9656V25.9656Z" fill="#31B782" stroke="#009061" stroke-width="0.25"/>
<path d="M20.6312 28.5283C18.3807 28.1228 16.3596 27.0686 14.7864 25.4799C13.4738 24.1542 12.5114 22.4714 12.146 20.8628C11.5917 18.4229 12.1407 16.2626 13.5787 15.225C14.5763 14.5053 15.8215 14.3971 17.2799 14.9035L17.2082 15.1097C15.8211 14.6279 14.6429 14.7264 13.7064 15.402C12.3406 16.3875 11.8243 18.4614 12.3588 20.8144C12.7154 22.3844 13.6568 24.0289 14.9414 25.3263C16.4829 26.883 18.4638 27.916 20.6699 28.3135L20.6312 28.5283Z" fill="#31B782" stroke="#009061" stroke-width="0.25"/>
<path d="M18.8082 25.9659C16.02 24.7732 14.5648 22.3149 14.1325 20.4119C13.7737 18.8319 14.0302 17.4113 14.7709 16.8769C15.3293 16.474 16.3065 16.5611 17.3849 17.1101L17.2859 17.3046C16.2968 16.8012 15.3821 16.7051 14.8986 17.0539C14.228 17.5378 14.0057 18.8678 14.3454 20.3636C14.7657 22.214 16.1814 24.6048 18.894 25.7653L18.8082 25.966V25.9659Z" fill="#31B782" stroke="#009061" stroke-width="0.25"/>
<path d="M21.1464 35.4258H31.6924C33.651 35.4258 35.2411 37.0159 35.2411 38.9745V39.2141H17.5977V38.9745C17.5977 37.0159 19.1878 35.4258 21.1464 35.4258Z" stroke="#009061" stroke-width="0.25"/>
<path d="M35.35 39.3235H17.4883V38.9748C17.4883 36.9578 19.1292 35.3169 21.1462 35.3169H31.6921C33.7091 35.3169 35.35 36.9578 35.35 38.9748V39.3235H35.35ZM17.7065 39.1052H35.1317V38.9748C35.1317 37.0782 33.5887 35.5352 31.6921 35.5352H21.1461C19.2495 35.5352 17.7065 37.0782 17.7065 38.9748V39.1052Z" fill="#31B782" stroke="#009061" stroke-width="0.25"/>
<path d="M30.9844 35.5351C29.314 35.5351 27.9551 34.1577 27.9551 32.4645C27.9551 31.4431 28.4541 30.4915 29.29 29.9188C29.3397 29.8847 29.4077 29.8974 29.4417 29.9471C29.4758 29.9968 29.4631 30.0647 29.4134 30.0988C28.6369 30.6308 28.1734 31.5152 28.1734 32.4645C28.1734 34.0372 29.4344 35.3168 30.9844 35.3168C31.0447 35.3168 31.0936 35.3656 31.0936 35.4259C31.0936 35.4862 31.0447 35.5351 30.9844 35.5351Z" fill="#31B782" stroke="#009061" stroke-width="0.25"/>
<path d="M21.8528 35.5351C21.7925 35.5351 21.7437 35.4863 21.7437 35.426C21.7437 35.3657 21.7925 35.3168 21.8528 35.3168C23.4028 35.3168 24.6639 34.0373 24.6639 32.4645C24.6639 31.5152 24.2003 30.6309 23.4239 30.0989C23.3741 30.0648 23.3614 29.9969 23.3955 29.9472C23.4296 29.8974 23.4975 29.8847 23.5472 29.9188C24.3832 30.4915 24.8822 31.4431 24.8822 32.4645C24.8822 34.1577 23.5232 35.5351 21.8528 35.5351V35.5351Z" fill="#31B782" stroke="#009061" stroke-width="0.25"/>
<path d="M26.419 30.502C24.3812 30.502 22.7503 30.0696 21.4331 29.18C20.2252 28.3642 19.3139 27.1831 18.6471 25.569C17.4428 22.6538 17.1851 18.7209 17.1685 13.7125C17.1678 13.5221 17.2414 13.3431 17.3757 13.2084C17.5096 13.074 17.6878 13 17.8775 13H34.9605C35.1502 13 35.3284 13.074 35.4623 13.2084C35.5965 13.3431 35.6702 13.5221 35.6695 13.7125C35.653 18.7209 35.3951 22.6539 34.1909 25.569C33.5241 27.1831 32.6128 28.3642 31.4048 29.18C30.0877 30.0696 28.4568 30.502 26.419 30.502H26.419ZM17.8775 13.2183C17.7463 13.2183 17.623 13.2695 17.5303 13.3624C17.4373 13.4557 17.3863 13.5798 17.3868 13.7118C17.4033 18.6944 17.6582 22.6035 18.8489 25.4857C19.4988 27.0589 20.3841 28.2081 21.5553 28.9991C22.8352 29.8636 24.4261 30.2838 26.419 30.2838C28.4119 30.2838 30.0029 29.8636 31.2827 28.9991C32.454 28.2081 33.3393 27.0589 33.9892 25.4857C35.1799 22.6035 35.4348 18.6944 35.4513 13.7118C35.4517 13.5798 35.4007 13.4558 35.3077 13.3624C35.2151 13.2695 35.0918 13.2183 34.9606 13.2183H17.8775Z" fill="#31B782" stroke="#009061" stroke-width="0.25"/>
<path d="M36.047 40.9998H16.9208C16.7356 40.9998 16.585 40.8491 16.585 40.6639V39.4409C16.585 39.2556 16.7357 39.105 16.9208 39.105H36.0471C36.2322 39.105 36.3829 39.2557 36.3829 39.4409V40.6639C36.3829 40.8492 36.2322 40.9998 36.0471 40.9998H36.047ZM16.9208 39.3232C16.856 39.3232 16.8032 39.376 16.8032 39.4408V40.6639C16.8032 40.7287 16.856 40.7815 16.9208 40.7815H36.047C36.1119 40.7815 36.1646 40.7287 36.1646 40.6639V39.4408C36.1646 39.376 36.1119 39.3232 36.047 39.3232H16.9208H16.9208Z" fill="#31B782" stroke="#009061" stroke-width="0.25"/>
<path d="M18.1204 23.2027L17.917 23.1234C17.9727 22.9805 18.0345 22.8378 18.1007 22.6992L18.2977 22.7933C18.2338 22.9271 18.1741 23.0648 18.1204 23.2027Z" fill="#31B782" stroke="#009061" stroke-width="0.25"/>
<path d="M28.5432 29.5565L28.3788 29.413C28.5682 29.1959 28.7436 28.9636 28.9002 28.7225L29.0833 28.8414C28.9211 29.0912 28.7394 29.3318 28.5432 29.5565ZM29.5166 28.0569L29.3185 27.9652C29.4394 27.7039 29.5424 27.4317 29.6247 27.1561L29.8338 27.2186C29.7486 27.5041 29.6419 27.7861 29.5166 28.0569ZM30.028 26.3435L29.8121 26.3115C29.8541 26.0279 29.8763 25.7377 29.8779 25.4485L30.0962 25.4498C30.0945 25.7491 30.0715 26.0498 30.028 26.3434V26.3435ZM29.8222 24.5852C29.7834 24.2998 29.7238 24.0151 29.6449 23.7388L29.8548 23.6789C29.9365 23.9651 29.9983 24.2602 30.0385 24.5558L29.8222 24.5853L29.8222 24.5852ZM29.3486 22.9264C29.2311 22.6643 29.0935 22.4081 28.9397 22.1648L29.1241 22.0481C29.2835 22.3001 29.426 22.5656 29.5477 22.837L29.3486 22.9264ZM18.7256 22.0414L18.5439 21.9203C18.7092 21.6725 18.8938 21.4341 19.0926 21.2118L19.2554 21.3573C19.0634 21.5719 18.8851 21.8021 18.7256 22.0414H18.7256ZM28.4267 21.4684C28.2401 21.2494 28.0362 21.0418 27.8206 20.8513L27.9652 20.6877C28.1884 20.885 28.3996 21.1 28.5929 21.3269L28.4267 21.4684ZM19.8762 20.7548L19.7357 20.5878C19.964 20.3957 20.2078 20.2184 20.4604 20.0609L20.5759 20.246C20.3321 20.3981 20.0967 20.5694 19.8763 20.7548H19.8762ZM27.1334 20.3256C26.8928 20.1673 26.6388 20.0249 26.3786 19.9026L26.4715 19.705C26.7411 19.8318 27.0042 19.9793 27.2534 20.1433L27.1334 20.3256ZM21.3404 19.8416L21.2523 19.6419C21.5252 19.5216 21.809 19.42 22.0959 19.3401L22.1545 19.5504C21.8777 19.6275 21.6037 19.7255 21.3404 19.8416ZM25.5711 19.5914C25.2964 19.5075 25.0127 19.4427 24.728 19.3988L24.7613 19.1831C25.0563 19.2286 25.3502 19.2957 25.6348 19.3826L25.5711 19.5914ZM23.0022 19.3782L22.9742 19.1617C23.2435 19.1268 23.5186 19.1091 23.7918 19.1091C23.8177 19.1103 23.843 19.1093 23.8685 19.1096L23.8661 19.3279C23.8416 19.3276 23.8171 19.3274 23.7926 19.3274H23.7918C23.5279 19.3274 23.2623 19.3445 23.0023 19.3782H23.0022Z" fill="#31B782" stroke="#009061" stroke-width="0.25"/>
<path d="M27.5421 30.4807L27.4121 30.3054C27.531 30.2173 27.6482 30.1236 27.7606 30.0269L27.903 30.1923C27.7867 30.2925 27.6652 30.3895 27.5421 30.4807V30.4807Z" fill="#31B782" stroke="#009061" stroke-width="0.25"/>
<path d="M29.525 23.6877C26.9211 23.6877 24.473 22.6737 22.6316 20.8324C20.7903 18.9911 19.7764 16.5431 19.7764 13.9391C19.7764 13.6596 19.7883 13.3773 19.812 13.1001L20.0295 13.1187C20.0064 13.3897 19.9947 13.6658 19.9947 13.9391C19.9947 16.4848 20.986 18.8781 22.7861 20.6781C24.5861 22.4781 26.9794 23.4694 29.525 23.4694C31.4874 23.4694 33.3719 22.8778 34.9749 21.7585L35.0999 21.9374C33.4601 23.0825 31.5323 23.6877 29.5251 23.6877L29.525 23.6877Z" fill="#31B782" stroke="#009061" stroke-width="0.25"/>
</svg>
